<svg width="200" height="200" viewBox="0 0 200 200" fill="none" xmlns="http://www.w3.org/2000/svg">
<path d="M162.823 46.1738L151.382 174.414L99.9203 188.679L48.6082 174.434L37.1768 46.1738H162.823Z" fill="#E44D26"/>
<path d="M100 177.773L141.581 166.243L151.362 56.6602H100V177.773Z" fill="#F16529"/>
<path d="M77.7435 88.1221H100V72.3965H99.9403H60.5566L60.9344 76.6112L64.8012 119.961H100V104.235H79.1849L77.7435 88.1221Z" fill="#EBEBEB"/>
<path d="M81.2923 127.823H72.7834H65.4971L67.7038 152.525L99.9305 161.471L100 161.451V145.08L99.9305 145.1L82.4156 140.368L81.2923 127.823Z" fill="#EBEBEB"/>
<path d="M48.8662 11.3223H56.8185V19.2149H64.1346V11.3223H72.0869V35.2388H64.1346V27.2268H56.8583V35.2388H48.906V11.3223H48.8662Z" fill="black"/>
<path d="M82.6735 19.255H75.6357V11.3027H97.7133V19.255H90.6755V35.2391H82.7232V19.255H82.6735Z" fill="black"/>
<path d="M101.212 11.3223H109.552L114.682 19.7219L119.801 11.3223H128.141V35.2388H120.189V23.3799L114.692 31.8889H114.552L109.045 23.3799V35.2388H101.222V11.3223H101.212Z" fill="black"/>
<path d="M132.117 11.3223H140.069V27.3362H151.312V35.2885H132.117V11.3223Z" fill="black"/>
<path d="M99.9404 119.961H119.314L117.485 140.359L99.9404 145.1V161.462L132.197 152.526L132.426 149.872L136.123 108.46L136.511 104.235H132.266H99.9404V119.961Z" fill="white"/>
<path d="M99.9404 88.0824V88.1221H137.893H137.942L138.261 84.5834L138.976 76.6112L139.354 72.3965H99.9404V82.1679V88.0824Z" fill="white"/>
</svg>
