<svg width="200" height="200" viewBox="0 0 200 200" fill="none" xmlns="http://www.w3.org/2000/svg">
<path d="M20 20H180V180H20V20Z" fill="#F6DF19"/>
<path d="M62.0701 153.71L74.3101 146.3C76.6801 150.49 78.8301 154 84.0001 154C88.9401 154 92.0601 152.07 92.0601 144.55V93.46H107.06V144.79C107.06 160.37 97.9301 167.45 84.6101 167.45C72.6101 167.45 65.6101 161.22 62.0601 153.71" fill="#010101"/>
<path d="M115.24 152.1L127.48 145C130.7 150.26 134.89 154.13 142.3 154.13C148.53 154.13 152.51 151.01 152.51 146.72C152.51 141.56 148.42 139.72 141.51 136.72L137.75 135.11C126.9 130.49 119.75 124.69 119.75 112.45C119.75 101.17 128.34 92.5801 141.75 92.5801C151.3 92.5801 158.18 95.9101 163.12 104.58L151.41 112.09C148.83 107.48 146.04 105.65 141.75 105.65C137.46 105.65 134.55 108.44 134.55 112.09C134.55 116.6 137.34 118.43 143.79 121.22L147.54 122.83C160.33 128.31 167.54 133.9 167.54 146.46C167.54 159.99 156.91 167.4 142.63 167.4C128.63 167.4 119.63 160.75 115.24 152.05" fill="#010101"/>
</svg>
