<svg width="200" height="200" viewBox="0 0 200 200" fill="none" xmlns="http://www.w3.org/2000/svg">
<path d="M98.8799 159.69C98.2329 159.691 97.5977 159.518 97.0399 159.19L91.1599 155.72C90.2799 155.23 90.7099 155.05 90.9999 154.95C91.9329 154.658 92.8264 154.252 93.6599 153.74C93.7256 153.704 93.7996 153.684 93.8749 153.684C93.9502 153.684 94.0242 153.704 94.0899 153.74L98.6099 156.42C98.6929 156.465 98.7856 156.488 98.8799 156.488C98.9741 156.488 99.0669 156.465 99.1499 156.42L116.76 146.26C116.839 146.208 116.905 146.137 116.95 146.053C116.995 145.969 117.019 145.876 117.02 145.78V125.51C117.021 125.412 116.996 125.316 116.949 125.23C116.902 125.144 116.833 125.072 116.75 125.02L99.1599 114.87C99.0766 114.821 98.9816 114.795 98.8849 114.795C98.7881 114.795 98.6931 114.821 98.6099 114.87L80.9999 125C80.9153 125.051 80.8453 125.123 80.7963 125.209C80.7473 125.295 80.721 125.392 80.7199 125.49V145.8C80.7205 145.897 80.7467 145.991 80.7959 146.074C80.8452 146.156 80.9156 146.224 80.9999 146.27L85.8199 149.06C88.4399 150.36 90.0399 148.82 90.0399 147.28V127.24C90.0399 127.105 90.0936 126.975 90.1892 126.88C90.2849 126.784 90.4146 126.73 90.5499 126.73H92.7899C92.9243 126.733 93.0526 126.788 93.1477 126.883C93.2427 126.978 93.2973 127.106 93.2999 127.24V147.3C93.2999 150.79 91.3899 152.79 88.0799 152.79C86.67 152.804 85.2843 152.423 84.0799 151.69L79.4299 149C78.8691 148.673 78.404 148.204 78.0811 147.641C77.7583 147.078 77.5889 146.44 77.5899 145.79V125.51C77.5878 124.861 77.7568 124.222 78.0798 123.659C78.4028 123.095 78.8684 122.627 79.4299 122.3L96.9999 112.13C97.5673 111.821 98.2034 111.658 98.8499 111.658C99.4963 111.658 100.132 111.821 100.7 112.13L118.3 122.3C118.861 122.628 119.326 123.096 119.649 123.66C119.971 124.223 120.141 124.861 120.14 125.51V145.82C120.141 146.47 119.971 147.108 119.649 147.671C119.326 148.234 118.861 148.703 118.3 149.03L100.7 159.19C100.146 159.511 99.5195 159.683 98.8799 159.69Z" fill="#679E63"/>
<path d="M104.32 145.69C96.62 145.69 95 142.16 95 139.19C95 139.055 95.0537 138.925 95.1494 138.83C95.245 138.734 95.3747 138.68 95.51 138.68H97.79C97.9108 138.681 98.0273 138.725 98.1189 138.804C98.2104 138.882 98.2711 138.991 98.29 139.11C98.64 141.43 99.66 142.6 104.29 142.6C108 142.6 109.58 141.76 109.58 139.79C109.58 138.66 109.13 137.79 103.37 137.25C98.55 136.78 95.57 135.71 95.57 131.86C95.57 128.31 98.57 126.19 103.57 126.19C109.21 126.19 112 128.19 112.36 132.35C112.366 132.421 112.356 132.491 112.333 132.558C112.31 132.624 112.273 132.686 112.226 132.737C112.178 132.789 112.12 132.83 112.055 132.858C111.99 132.886 111.92 132.901 111.85 132.9H109.6C109.485 132.899 109.374 132.858 109.285 132.786C109.197 132.713 109.135 132.613 109.11 132.5C108.56 130.07 107.23 129.29 103.61 129.29C99.61 129.29 99.09 130.7 99.09 131.75C99.09 133.03 99.65 133.41 105.09 134.13C110.53 134.85 113.09 135.86 113.09 139.66C113.09 143.46 109.9 145.69 104.32 145.69Z" fill="#679E63"/>
<path d="M129.7 124.39C129.698 125.06 129.497 125.715 129.124 126.271C128.75 126.827 128.22 127.26 127.6 127.515C126.981 127.77 126.299 127.836 125.642 127.704C124.986 127.572 124.382 127.248 123.909 126.774C123.436 126.299 123.114 125.695 122.984 125.038C122.854 124.381 122.922 123.7 123.179 123.081C123.436 122.462 123.87 121.933 124.428 121.561C124.985 121.189 125.64 120.99 126.31 120.99C127.209 120.996 128.07 121.356 128.705 121.993C129.34 122.629 129.697 123.491 129.7 124.39ZM123.46 124.39C123.458 124.955 123.624 125.507 123.936 125.977C124.248 126.448 124.693 126.814 125.215 127.031C125.736 127.248 126.31 127.306 126.863 127.196C127.417 127.086 127.926 126.815 128.325 126.415C128.724 126.016 128.996 125.508 129.106 124.954C129.215 124.4 129.158 123.826 128.941 123.305C128.724 122.784 128.357 122.339 127.887 122.026C127.417 121.714 126.864 121.548 126.3 121.55C125.549 121.553 124.83 121.852 124.298 122.381C123.766 122.911 123.465 123.63 123.46 124.38V124.39ZM125.03 122.49H126.34C126.79 122.49 127.67 122.49 127.67 123.49C127.688 123.707 127.624 123.923 127.491 124.095C127.358 124.268 127.165 124.383 126.95 124.42C127.48 124.42 127.51 124.8 127.58 125.29C127.601 125.631 127.668 125.968 127.78 126.29H127C127 126.11 126.86 125.14 126.86 125.09C126.858 125.042 126.845 124.994 126.823 124.951C126.801 124.908 126.771 124.87 126.733 124.839C126.695 124.809 126.651 124.787 126.604 124.775C126.557 124.763 126.508 124.762 126.46 124.77H125.8V126.29H125L125.03 122.49ZM125.75 124.16H126.34C126.414 124.171 126.49 124.164 126.562 124.142C126.633 124.12 126.699 124.082 126.755 124.032C126.81 123.981 126.853 123.919 126.882 123.849C126.911 123.78 126.924 123.705 126.92 123.63C126.92 123.11 126.56 123.11 126.36 123.11H125.75V124.16Z" fill="#679E63"/>
<path fill-rule="evenodd" clip-rule="evenodd" d="M44.3699 80.21C44.3795 79.8068 44.2807 79.4085 44.0836 79.0566C43.8866 78.7048 43.5986 78.4124 43.2499 78.21L24.5799 67.51C24.2736 67.3353 23.9317 67.2327 23.5799 67.21H23.3799C23.0285 67.2354 22.6871 67.3378 22.3799 67.51L3.66986 78.25C3.32135 78.4535 3.03311 78.7459 2.83458 79.0973C2.63605 79.4486 2.53434 79.8464 2.53986 80.25V109.17C2.53209 109.373 2.58136 109.575 2.6821 109.751C2.78283 109.928 2.931 110.073 3.10986 110.17C3.27832 110.273 3.47216 110.328 3.66986 110.328C3.86756 110.328 4.06139 110.273 4.22986 110.17L15.3199 103.82C15.6686 103.618 15.9566 103.325 16.1536 102.973C16.3507 102.621 16.4495 102.223 16.4399 101.82V88.29C16.4333 87.8862 16.5346 87.488 16.7332 87.1365C16.9318 86.7849 17.2206 86.4927 17.5699 86.29L22.2899 83.57C22.6344 83.3743 23.0236 83.271 23.4199 83.27C23.8132 83.2685 24.1999 83.3721 24.5399 83.57L29.2599 86.29C29.6091 86.4927 29.8979 86.7849 30.0965 87.1365C30.2952 87.488 30.3964 87.8862 30.3899 88.29V101.8C30.3822 102.204 30.4831 102.602 30.6818 102.954C30.8805 103.306 31.1699 103.598 31.5199 103.8L42.6099 110.15C42.7802 110.253 42.9756 110.308 43.1749 110.308C43.3741 110.308 43.5695 110.253 43.7399 110.15C43.9146 110.049 44.0589 109.903 44.1575 109.727C44.256 109.551 44.3052 109.352 44.2999 109.15L44.3699 80.21Z" fill="#333333"/>
<path fill-rule="evenodd" clip-rule="evenodd" d="M134.17 40.4603C133.997 40.3639 133.802 40.3147 133.604 40.3175C133.406 40.3203 133.212 40.3751 133.042 40.4764C132.872 40.5777 132.731 40.7219 132.634 40.8945C132.538 41.0672 132.488 41.2623 132.49 41.4603V70.0803C132.489 70.2179 132.452 70.3528 132.382 70.4716C132.313 70.5904 132.214 70.6891 132.094 70.7578C131.975 70.8265 131.84 70.8629 131.703 70.8633C131.565 70.8637 131.43 70.8282 131.31 70.7603L126.64 68.0703C126.296 67.8739 125.906 67.7706 125.51 67.7706C125.114 67.7706 124.724 67.8739 124.38 68.0703L105.71 78.8503C105.361 79.0527 105.073 79.3451 104.876 79.697C104.679 80.0488 104.58 80.4472 104.59 80.8503V102.4C104.58 102.803 104.679 103.202 104.876 103.554C105.073 103.905 105.361 104.198 105.71 104.4L124.38 115.19C124.724 115.387 125.114 115.49 125.51 115.49C125.906 115.49 126.296 115.387 126.64 115.19L145.31 104.4C145.661 104.2 145.952 103.908 146.151 103.556C146.35 103.204 146.45 102.805 146.44 102.4V48.6203C146.443 48.2138 146.336 47.814 146.132 47.4624C145.928 47.1107 145.634 46.82 145.28 46.6203L134.17 40.4603ZM132.44 95.2703C132.44 95.3704 132.413 95.4687 132.362 95.5549C132.311 95.6411 132.238 95.712 132.15 95.7603L125.75 99.4503C125.663 99.4994 125.565 99.5252 125.465 99.5252C125.365 99.5252 125.267 99.4994 125.18 99.4503L118.77 95.7603C118.685 95.7092 118.615 95.6374 118.566 95.5517C118.517 95.4659 118.491 95.3691 118.49 95.2703V87.8703C118.491 87.7715 118.517 87.6747 118.566 87.589C118.615 87.5032 118.685 87.4314 118.77 87.3803L125.18 83.6803C125.267 83.6312 125.365 83.6055 125.465 83.6055C125.565 83.6055 125.663 83.6312 125.75 83.6803L132.16 87.3803C132.245 87.4314 132.315 87.5032 132.364 87.589C132.413 87.6747 132.439 87.7715 132.44 87.8703V95.2703Z" fill="#333333"/>
<path fill-rule="evenodd" clip-rule="evenodd" d="M196.34 87.6702C196.689 87.4678 196.977 87.1754 197.174 86.8235C197.371 86.4717 197.469 86.0733 197.46 85.6702V80.5002C197.468 80.0972 197.369 79.6993 197.172 79.3477C196.975 78.996 196.688 78.7034 196.34 78.5002L177.79 67.7802C177.446 67.5838 177.056 67.4805 176.66 67.4805C176.263 67.4805 175.874 67.5838 175.53 67.7802L156.86 78.5502C156.513 78.755 156.227 79.0479 156.03 79.3992C155.833 79.7505 155.733 80.1476 155.74 80.5502V102.1C155.731 102.506 155.832 102.906 156.033 103.258C156.234 103.61 156.527 103.901 156.88 104.1L175.42 114.67C175.757 114.859 176.138 114.959 176.525 114.959C176.912 114.959 177.292 114.859 177.63 114.67L188.85 108.44C189.032 108.344 189.185 108.201 189.291 108.024C189.397 107.848 189.454 107.646 189.454 107.44C189.454 107.234 189.397 107.032 189.291 106.856C189.185 106.68 189.032 106.536 188.85 106.44L170.08 95.6102C169.904 95.5102 169.759 95.3643 169.661 95.1881C169.562 95.0118 169.513 94.812 169.52 94.6102V87.8802C169.513 87.6783 169.562 87.4785 169.661 87.3023C169.759 87.1261 169.904 86.9802 170.08 86.8802L175.93 83.5102C176.1 83.4119 176.293 83.3601 176.49 83.3601C176.686 83.3601 176.88 83.4119 177.05 83.5102L182.9 86.8802C183.075 86.9802 183.22 87.1261 183.319 87.3023C183.417 87.4785 183.466 87.6783 183.46 87.8802V93.2002C183.459 93.3999 183.51 93.5965 183.608 93.7702C183.707 93.9438 183.85 94.0886 184.022 94.1898C184.194 94.2911 184.39 94.3454 184.589 94.3472C184.789 94.349 184.986 94.2983 185.16 94.2002L196.34 87.6702Z" fill="#333333"/>
<path fill-rule="evenodd" clip-rule="evenodd" d="M176.38 86.6605C176.446 86.6262 176.52 86.6084 176.595 86.6084C176.67 86.6084 176.743 86.6262 176.81 86.6605L180.4 88.7305C180.465 88.7702 180.518 88.8262 180.555 88.8928C180.592 88.9594 180.611 89.0344 180.61 89.1105V93.2405C180.611 93.3165 180.592 93.3916 180.555 93.4582C180.518 93.5248 180.465 93.5807 180.4 93.6205L176.81 95.6805C176.745 95.7192 176.671 95.7397 176.595 95.7397C176.519 95.7397 176.445 95.7192 176.38 95.6805L172.8 93.6205C172.735 93.5807 172.682 93.5248 172.645 93.4582C172.608 93.3916 172.589 93.3165 172.59 93.2405V89.1105C172.589 89.0344 172.608 88.9594 172.645 88.8928C172.682 88.8262 172.735 88.7702 172.8 88.7305L176.38 86.6605Z" fill="#679E63"/>
<path fill-rule="evenodd" clip-rule="evenodd" d="M75.6001 67.8899C75.2596 67.6933 74.8733 67.5898 74.4801 67.5898C74.0869 67.5898 73.7006 67.6933 73.3601 67.8899L54.8001 78.5999C54.4487 78.8002 54.1581 79.0919 53.9592 79.4441C53.7602 79.7962 53.6603 80.1956 53.6701 80.5999V102C53.6711 102.394 53.7761 102.781 53.9745 103.122C54.1729 103.462 54.4577 103.745 54.8001 103.94L73.3601 114.66C73.7006 114.857 74.0869 114.96 74.4801 114.96C74.8733 114.96 75.2596 114.857 75.6001 114.66L94.1601 103.94C94.5013 103.744 94.7847 103.462 94.9814 103.121C95.1781 102.78 95.2811 102.393 95.2801 102V80.5499C95.2919 80.1464 95.194 79.7473 94.9967 79.395C94.7995 79.0428 94.5103 78.7507 94.1601 78.5499L75.6001 67.8899Z" fill="url(#paint0_linear)"/>
<path d="M94.2001 78.6002L75.5801 67.8902C75.3995 67.7846 75.2039 67.7071 75.0001 67.6602L54.1001 103.42C54.2782 103.622 54.4875 103.794 54.7201 103.93L73.3701 114.65C73.6291 114.801 73.9157 114.898 74.2128 114.935C74.51 114.973 74.8117 114.951 75.1001 114.87L94.7001 79.0002C94.5499 78.8474 94.3821 78.7131 94.2001 78.6002Z" fill="url(#paint1_linear)"/>
<path d="M72.7402 63.9502L72.4902 64.1002H72.8302L72.7402 63.9502Z" fill="url(#paint2_linear)"/>
<path d="M94.2101 103.93C94.7517 103.618 95.1473 103.104 95.3101 102.5L74.9001 67.6402C74.3606 67.5262 73.798 67.6152 73.3201 67.8902L54.8301 78.5402L74.8301 114.93C75.1188 114.89 75.3972 114.795 75.6501 114.65L94.2101 103.93Z" fill="url(#paint3_linear)"/>
<path d="M95.9398 103.59L95.8198 103.38V103.66L95.9398 103.59Z" fill="url(#paint4_linear)"/>
<path d="M94.2101 103.93L75.6301 114.65C75.3771 114.795 75.0988 114.89 74.8101 114.93L75.1801 115.61L95.8201 103.61V103.33L95.3101 102.45C95.2354 102.758 95.0996 103.048 94.9106 103.302C94.7216 103.556 94.4834 103.77 94.2101 103.93Z" fill="url(#paint5_linear)"/>
<path d="M94.2101 103.93L75.6301 114.65C75.3771 114.795 75.0988 114.89 74.8101 114.93L75.1801 115.61L95.8201 103.61V103.33L95.3101 102.45C95.2354 102.758 95.0996 103.048 94.9106 103.302C94.7216 103.556 94.4834 103.77 94.2101 103.93Z" fill="url(#paint6_linear)"/>
<defs>
<linearGradient id="paint0_linear" x1="82.0301" y1="75.8699" x2="65.2601" y2="110.08" gradientUnits="userSpaceOnUse">
<stop stop-color="#3F873F"/>
<stop offset="0.33" stop-color="#3F8B3D"/>
<stop offset="0.64" stop-color="#3E9637"/>
<stop offset="0.93" stop-color="#3DA92E"/>
<stop offset="1" stop-color="#3DAE2B"/>
</linearGradient>
<linearGradient id="paint1_linear" x1="71.6501" y1="93.7802" x2="118.71" y2="59.0002" gradientUnits="userSpaceOnUse">
<stop offset="0.14" stop-color="#3F873F"/>
<stop offset="0.4" stop-color="#529F44"/>
<stop offset="0.71" stop-color="#63B649"/>
<stop offset="0.91" stop-color="#6ABF4B"/>
</linearGradient>
<linearGradient id="paint2_linear" x1="53.02" y1="64.0302" x2="95.9405" y2="64.0302" gradientUnits="userSpaceOnUse">
<stop offset="0.09" stop-color="#6ABF4B"/>
<stop offset="0.29" stop-color="#63B649"/>
<stop offset="0.6" stop-color="#529F44"/>
<stop offset="0.86" stop-color="#3F873F"/>
</linearGradient>
<linearGradient id="paint3_linear" x1="2201.08" y1="4387.69" x2="3938.48" y2="4387.69" gradientUnits="userSpaceOnUse">
<stop offset="0.09" stop-color="#6ABF4B"/>
<stop offset="0.29" stop-color="#63B649"/>
<stop offset="0.6" stop-color="#529F44"/>
<stop offset="0.86" stop-color="#3F873F"/>
</linearGradient>
<linearGradient id="paint4_linear" x1="102.182" y1="132.366" x2="107.333" y2="132.366" gradientUnits="userSpaceOnUse">
<stop offset="0.09" stop-color="#6ABF4B"/>
<stop offset="0.29" stop-color="#63B649"/>
<stop offset="0.6" stop-color="#529F44"/>
<stop offset="0.86" stop-color="#3F873F"/>
</linearGradient>
<linearGradient id="paint5_linear" x1="1188.76" y1="1537.68" x2="2090.51" y2="1537.68" gradientUnits="userSpaceOnUse">
<stop offset="0.09" stop-color="#6ABF4B"/>
<stop offset="0.29" stop-color="#63B649"/>
<stop offset="0.6" stop-color="#529F44"/>
<stop offset="0.86" stop-color="#3F873F"/>
</linearGradient>
<linearGradient id="paint6_linear" x1="2221.82" y1="1087.48" x2="1974.53" y2="1893.06" gradientUnits="userSpaceOnUse">
<stop stop-color="#3F873F"/>
<stop offset="0.33" stop-color="#3F8B3D"/>
<stop offset="0.64" stop-color="#3E9637"/>
<stop offset="0.93" stop-color="#3DA92E"/>
<stop offset="1" stop-color="#3DAE2B"/>
</linearGradient>
</defs>
</svg>
