<svg width="200" height="200" viewBox="0 0 200 200" fill="none" xmlns="http://www.w3.org/2000/svg">
<path d="M34.3901 68.3204C35.8454 68.3006 37.2623 67.8503 38.4621 67.0264C39.6619 66.2024 40.5909 65.0416 41.1319 63.6904C41.6729 62.3392 41.8017 60.8581 41.5021 59.4338C41.2024 58.0095 40.4877 56.7058 39.4482 55.6871C38.4086 54.6684 37.0907 53.9803 35.6606 53.7096C34.2305 53.4389 32.7523 53.5978 31.4123 54.166C30.0724 54.7343 28.9307 55.6867 28.1312 56.9029C27.3318 58.1192 26.9103 59.5449 26.9201 61.0004C26.9292 61.9717 27.1298 62.9317 27.5103 63.8255C27.8908 64.7192 28.4437 65.5292 29.1375 66.2091C29.8313 66.8889 30.6523 67.4253 31.5536 67.7876C32.4549 68.1499 33.4188 68.3309 34.3901 68.3204Z" fill="white"/>
<path d="M111.15 28.3498C118.95 25.9398 127.46 25.2998 135.39 27.4498C141.788 29.1698 147.44 32.9518 151.47 38.2098C153.08 40.3898 153.47 43.2098 153.56 45.8098C153.589 50.5045 153.01 55.1832 151.84 59.7298C148.821 71.7133 143.858 83.1211 137.15 93.4998C140.85 95.0798 144.99 94.2898 148.81 93.6098C150.4 93.2998 152.45 92.9098 153.65 94.3098C154.85 95.7098 153.65 97.7598 152.51 98.8698C146.96 104.29 138.57 105.71 131.15 104.46C130.4 111.09 129.61 117.72 128.57 124.32C128 128 126.77 131.84 123.89 134.38C121.17 136.75 117.6 137.8 114.13 138.46C110.66 139.12 106.62 138.57 103.84 136.13C100.933 133.422 99.1481 129.721 98.84 125.76C98.199 119.113 97.9419 112.436 98.07 105.76C94.8517 108.524 90.6715 109.904 86.44 109.6C83.44 109.35 80.2 108.89 77.97 106.73C77.6777 106.451 77.4488 106.113 77.299 105.738C77.1491 105.363 77.0819 104.96 77.1018 104.557C77.1218 104.153 77.2284 103.759 77.4145 103.401C77.6005 103.042 77.8616 102.728 78.18 102.48C80.55 100.69 83.71 100.82 86.41 99.7898C88.41 99.1998 89.41 97.2498 90.7 95.7898C88.3721 95.6313 86.0969 95.0234 84 93.9998C80.79 97.4098 77.71 100.94 74.7 104.53C72.97 106.61 70.41 108.37 67.58 108.03C64.39 107.64 62.02 105.14 60.24 102.66C56.73 97.6598 54.57 91.7998 52.59 86.0298C49.5463 76.7694 47.3047 67.2643 45.89 57.6198C45.21 50.3498 45.78 42.4298 50.02 36.2298C53.37 31.2298 59.23 28.5498 65.02 27.9498C72.87 27.1298 80.79 28.7298 88.16 31.3798C94.3 27.2798 102.16 26.7098 109.16 28.1498C109.807 28.3292 110.48 28.3968 111.15 28.3498ZM116.91 30.3498C118.44 31.4098 120.15 32.1398 121.68 33.1898C127.945 37.4823 132.881 43.4444 135.93 50.3998C136.78 52.3998 137.66 54.4798 137.48 56.6898C137.48 61.2098 135.97 65.6098 136.48 70.1498C136.92 74.9398 137.95 79.8498 136.73 84.6198C136.248 86.2605 135.632 87.8591 134.89 89.3998C134.94 89.6298 135.03 90.0998 135.07 90.3198C135.632 89.5779 136.15 88.8032 136.62 87.9998C141.533 79.7311 145.336 70.8514 147.93 61.5898C149.404 56.6037 150.184 51.4386 150.25 46.2398C150.16 44.0598 149.98 41.6698 148.57 39.8998C145.587 36.1499 141.654 33.2668 137.18 31.5498C130.675 29.2302 123.642 28.8174 116.91 30.3598V30.3498ZM98.36 30.9998C95.8689 31.3306 93.4681 32.1523 91.2967 33.4174C89.1253 34.6825 87.2264 36.3658 85.71 38.3698C81.62 43.7898 79.84 50.6298 79.32 57.2998C83.43 55.3798 88.06 53.5798 92.65 54.7398C94.1115 55.1407 95.4338 55.9374 96.4714 57.0419C97.5089 58.1465 98.2213 59.5161 98.53 60.9998C99.87 66.9098 100.6 73.1298 99.29 79.1098C98.29 83.9398 95.29 88.1098 94.36 92.9598C95.6207 92.9652 96.8654 93.2414 98.01 93.7698C99.1309 94.4286 100.048 95.3842 100.66 96.5312C101.273 97.6781 101.556 98.9719 101.48 100.27C101.31 106.86 101.32 113.46 101.66 120.04C101.737 122.778 102.072 125.504 102.66 128.18C103.66 131.34 105.83 134.58 109.31 135.18C113.008 135.592 116.742 134.848 120 133.05C123.18 131.38 124.61 127.8 125.15 124.43C126.3 117.43 127.1 110.33 127.91 103.26C128.26 100.73 127.76 97.9598 129.17 95.6898C129.98 94.2298 131.56 93.5498 132.97 92.8298C131.726 91.357 130.599 89.7889 129.6 88.1398C126.1 80.8998 121.35 74.0598 119.89 66.0098C119.26 62.6298 119.62 58.5998 122.42 56.2398C125.51 53.5898 129.84 53.7398 133.66 53.8798C131.29 47.3529 127.132 41.6246 121.66 37.3498C115.035 32.2427 106.66 29.9603 98.36 30.9998ZM63.36 31.5598C61.0498 31.9358 58.848 32.8059 56.9047 34.1106C54.9615 35.4153 53.3227 37.1239 52.1 39.1198C48.99 44.5398 48.65 51.0598 49.19 57.1198C50.3619 65.1081 52.12 72.9994 54.45 80.7298C56.45 87.2698 58.66 93.8598 62.3 99.7298C63.65 101.73 65.2 103.93 67.62 104.63C69.69 105.06 71.33 103.35 72.55 101.92C75.3 98.5198 78.31 95.3498 81.16 92.0298C79.0683 90.1342 77.4618 87.7646 76.4752 85.1198C75.4886 82.475 75.1508 79.6321 75.49 76.8298C76.0698 72.522 76.2206 68.1673 75.94 63.8298C75.525 57.6529 76.3164 51.4543 78.27 45.5798C79.7052 41.1963 82.0651 37.1723 85.19 33.7798C78.17 31.6298 70.67 30.1398 63.35 31.5498L63.36 31.5598ZM124.83 58.6198C122.71 60.2798 122.83 63.2998 123.25 65.6898C124.77 73.1998 129.15 79.6298 132.54 86.3698C135.07 81.2898 133.54 75.5298 133.12 70.1698C132.69 65.8398 134.01 61.6298 134.12 57.3298C131 57.1198 127.51 56.6998 124.82 58.6098L124.83 58.6198ZM79.2 61.3798C79.27 64.9898 79.53 68.5998 79.28 72.2098C79.17 75.3998 78.28 78.5998 78.95 81.7798C79.95 87.4098 85.03 92.4098 90.95 92.3498C91.7999 89.5004 92.8389 86.7109 94.06 83.9998C97.61 76.9998 97.06 68.7798 95.18 61.3898C94.9027 60.3715 94.3102 59.4671 93.4876 58.8061C92.6649 58.1451 91.6541 57.7613 90.6 57.7098C86.52 57.4898 82.57 59.1998 79.2 61.3798ZM132.49 96.8998C131.39 97.8998 131.49 99.5598 131.49 100.9C133.952 101.61 136.542 101.76 139.07 101.34C142.88 100.93 146.76 99.6598 149.55 96.9398C144.98 97.4898 139.97 98.5998 135.67 96.3298C134.61 95.6598 133.37 96.2598 132.49 96.8998ZM89.14 102.18C86.59 103.69 83.49 103.59 80.84 104.82C86.21 107.55 93.64 106.59 97.36 101.56C99.26 99.7998 97.42 96.0598 94.9 96.4098C92.59 97.9198 91.61 100.85 89.14 102.18Z" fill="white"/>
<path d="M125.81 59.6103C126.589 59.0901 127.49 58.7815 128.425 58.7148C129.359 58.6482 130.295 58.8259 131.14 59.2303C131.105 59.7408 130.944 60.2348 130.673 60.6684C130.401 61.102 130.026 61.4618 129.582 61.716C129.138 61.9702 128.638 62.1109 128.127 62.1256C127.615 62.1403 127.108 62.0286 126.65 61.8003C125.88 61.4503 124.91 60.3503 125.81 59.6103Z" fill="white"/>
<path d="M88.6801 59.7397C89.4926 59.5022 90.3489 59.4544 91.1828 59.6C92.0168 59.7457 92.8061 60.0808 93.4901 60.5797C94.4101 61.3297 93.5701 62.5796 92.7701 63.0096C92.3172 63.2841 91.8056 63.4473 91.2774 63.4858C90.7492 63.5243 90.2194 63.437 89.7314 63.2311C89.2435 63.0252 88.8113 62.7065 88.4704 62.3012C88.1294 61.896 87.8894 61.4156 87.7701 60.8997C87.6201 60.2697 88.1601 59.9197 88.6801 59.7397Z" fill="white"/>
<path d="M116.91 30.3599C123.641 28.8143 130.674 29.2237 137.18 31.5399C141.654 33.257 145.587 36.14 148.57 39.8899C149.98 41.6599 150.16 44.0499 150.25 46.2299C150.185 51.4287 149.404 56.5938 147.93 61.5799C145.337 70.845 141.534 79.7281 136.62 87.9999C136.128 88.8085 135.587 89.5866 135 90.3299C135 90.1099 134.87 89.6399 134.82 89.4099C135.562 87.8692 136.178 86.2706 136.66 84.6299C137.88 79.8599 136.85 74.9499 136.41 70.1599C135.94 65.6199 137.49 61.2199 137.41 56.6999C137.59 54.4899 136.71 52.3999 135.86 50.4099C132.831 43.4633 127.919 37.5022 121.68 33.1999C120.15 32.1499 118.44 31.4199 116.91 30.3599Z" fill="#346791"/>
<path d="M98.3598 31.0001C106.684 29.9444 115.088 32.2314 121.73 37.3601C127.202 41.6349 131.36 47.3633 133.73 53.8901C129.91 53.7501 125.58 53.6001 122.49 56.2501C119.69 58.6101 119.33 62.6401 119.96 66.0201C121.42 74.0201 126.17 80.9101 129.67 88.1501C130.656 89.7944 131.77 91.3591 133 92.8301C131.59 93.5501 130 94.2301 129.2 95.6901C127.79 97.9601 128.29 100.69 127.94 103.26C127.13 110.33 126.33 117.41 125.18 124.43C124.64 127.8 123.18 131.38 120.03 133.05C116.768 134.855 113.025 135.603 109.32 135.19C105.84 134.58 103.65 131.34 102.67 128.19C102.082 125.514 101.747 122.789 101.67 120.05C101.33 113.47 101.32 106.87 101.49 100.28C101.566 98.9786 101.28 97.6814 100.664 96.5323C100.048 95.3832 99.1259 94.4272 97.9998 93.7701C96.8552 93.2569 95.6142 92.9944 94.3598 93.0001C95.3598 88.1601 98.2798 84.0001 99.2898 79.1501C100.6 73.1501 99.8698 66.9501 98.5298 61.0401C98.2227 59.5546 97.5111 58.1829 96.4734 57.0765C95.4358 55.97 94.1126 55.1718 92.6498 54.7701C88.0598 53.6101 83.4298 55.4101 79.3198 57.3301C79.8398 50.6601 81.6198 43.8201 85.7098 38.4001C87.2234 36.3906 89.1211 34.7017 91.2926 33.4313C93.4642 32.161 95.8664 31.3346 98.3598 31.0001Z" fill="#346791"/>
<path d="M63.3501 31.5502C70.6701 30.1402 78.1701 31.6302 85.1901 33.7702C82.0652 37.1627 79.7053 41.1868 78.2701 45.5702C76.3165 51.4447 75.5252 57.6433 75.9401 63.8202C76.2207 68.1578 76.0699 72.5125 75.4901 76.8202C75.1542 79.6194 75.4936 82.4583 76.4801 85.0994C77.4666 87.7404 79.0714 90.1067 81.1601 92.0002C78.3101 95.3202 75.3001 98.4902 72.5501 101.89C71.3301 103.32 69.6901 105.03 67.6201 104.6C65.2001 103.9 63.6201 101.69 62.3001 99.7002C58.6601 93.8702 56.4601 87.2802 54.4501 80.7002C52.1201 72.9699 50.362 65.0786 49.1901 57.0902C48.6501 51.0002 48.9901 44.4802 52.1001 39.0902C53.3238 37.0992 54.962 35.3952 56.9033 34.094C58.8446 32.7929 61.0435 31.9253 63.3501 31.5502Z" fill="#346791"/>
<path d="M124.82 58.6101C127.51 56.7001 131.03 57.1201 134.14 57.3201C134 61.6201 132.68 65.8301 133.14 70.1601C133.53 75.5201 135.09 81.2801 132.56 86.3601C129.17 79.6201 124.79 73.1901 123.27 65.6801C122.81 63.2901 122.7 60.2701 124.82 58.6101ZM125.82 59.6101C124.92 60.3501 125.89 61.4501 126.66 61.8001C127.118 62.0284 127.625 62.1401 128.137 62.1254C128.648 62.1107 129.148 61.97 129.592 61.7158C130.036 61.4616 130.411 61.1018 130.683 60.6682C130.954 60.2346 131.115 59.7406 131.15 59.2301C130.304 58.8238 129.366 58.6451 128.43 58.7118C127.493 58.7784 126.59 59.088 125.81 59.6101H125.82Z" fill="#346791"/>
<path d="M79.2002 61.38C82.5702 59.2 86.5202 57.49 90.6002 57.72C91.6543 57.7715 92.6651 58.1553 93.4877 58.8163C94.3104 59.4773 94.9029 60.3817 95.1802 61.4C97.0002 68.79 97.6102 77 94.0602 84C92.8361 86.7076 91.7938 89.4938 90.9402 92.34C85.0002 92.41 80.0002 87.41 79.0002 81.78C78.2902 78.6 79.2202 75.4 79.3302 72.21C79.5302 68.6 79.2702 65 79.2002 61.38ZM88.6802 59.74C88.1602 59.92 87.6202 60.27 87.6802 60.9C87.7996 61.416 88.0396 61.8963 88.3805 62.3016C88.7214 62.7069 89.1536 63.0255 89.6416 63.2314C90.1295 63.4373 90.6593 63.5246 91.1875 63.4861C91.7157 63.4476 92.2273 63.2845 92.6802 63.01C93.4802 62.56 94.3202 61.33 93.4002 60.58C92.7269 60.0948 91.953 59.7673 91.136 59.6219C90.3189 59.4765 89.4796 59.5169 88.6802 59.74Z" fill="#346791"/>
<path d="M132.49 96.8996C133.37 96.2596 134.61 95.6596 135.63 96.3696C139.93 98.6396 144.94 97.5296 149.51 96.9796C146.72 99.6996 142.84 100.98 139.03 101.38C136.502 101.8 133.912 101.65 131.45 100.94C131.46 99.5596 131.39 97.9296 132.49 96.8996Z" fill="#346791"/>
<path d="M89.1398 102.18C91.6098 100.85 92.5898 97.9197 94.8998 96.4097C97.4198 96.0597 99.2598 99.7997 97.3598 101.56C93.6398 106.56 86.2098 107.56 80.8398 104.82C83.4898 103.59 86.5898 103.69 89.1398 102.18Z" fill="#346791"/>
<path d="M111.17 25.0001C118.33 23.1201 125.91 22.3201 133.23 23.7101C139.943 24.8864 146.146 28.0575 151.03 32.8101C153.16 34.9401 155.32 37.2701 156.12 40.2701C157.56 45.4101 156.99 50.8501 156.12 56.0401C153.85 68.4901 148.93 80.3301 142.64 91.2701C145.47 91.2701 148.2 90.3601 151 90.1801C153.8 90.0001 156.7 91.6901 157.36 94.4801C158.19 97.4801 156.36 100.34 154.14 102.18C148.57 107.18 140.84 108.78 133.56 108.36C133.12 115.87 132.97 123.69 129.8 130.66C128.414 133.814 126.124 136.487 123.22 138.34C120.353 139.966 117.21 141.047 113.95 141.53C112.269 141.963 110.518 142.058 108.8 141.809C107.082 141.559 105.43 140.971 103.941 140.078C102.453 139.184 101.156 138.004 100.128 136.605C99.0992 135.207 98.3589 133.617 97.95 131.93C95.46 125.46 95.71 118.41 95.42 111.6C90.4362 113.534 84.9257 113.626 79.88 111.86C78.1338 111.209 76.5504 110.185 75.24 108.86C73.971 109.97 72.4535 110.759 70.8158 111.159C69.178 111.559 67.4679 111.56 65.83 111.16C61.64 110.02 58.68 106.51 56.45 102.98C52.59 96.6301 50.17 89.5501 48.03 82.4701C45.5803 74.3084 43.7616 65.9705 42.59 57.5301C42 50.0001 42.7 42.0001 46.75 35.4601C48.4309 32.8225 50.6375 30.5599 53.2322 28.8135C55.8268 27.0671 58.7537 25.8745 61.83 25.3101C70.48 23.5501 79.4 25.2501 87.71 27.8501C90.3366 26.4903 93.1305 25.4817 96.02 24.8501C101 23.8301 106.17 24.2901 111.17 25.0001ZM111.17 28.3701C110.524 28.3952 109.879 28.3141 109.26 28.1301C102.18 26.6901 94.37 27.2601 88.26 31.3601C80.89 28.7101 72.97 27.1101 65.12 27.9301C59.29 28.5301 53.43 31.2401 50.12 36.2101C45.88 42.4101 45.31 50.3301 45.99 57.6001C47.3759 67.2386 49.5873 76.7402 52.6 86.0001C54.6 91.7701 56.74 97.5901 60.25 102.63C62.03 105.11 64.4 107.63 67.59 108C70.42 108.34 72.98 106.58 74.71 104.5C77.71 100.91 80.8 97.3801 84.01 93.9701C86.1006 94.9913 88.3688 95.5991 90.69 95.7601C89.43 97.2501 88.4 99.2001 86.4 99.7601C83.7 100.76 80.54 100.66 78.17 102.45C77.8516 102.698 77.5905 103.013 77.4044 103.371C77.2183 103.729 77.1117 104.124 77.0918 104.527C77.0718 104.93 77.1391 105.333 77.2889 105.708C77.4387 106.083 77.6676 106.422 77.96 106.7C80.19 108.86 83.47 109.32 86.43 109.57C90.6614 109.874 94.8416 108.494 98.06 105.73C97.9318 112.406 98.1889 119.084 98.83 125.73C99.138 129.691 100.922 133.392 103.83 136.1C106.61 138.54 110.59 139.04 114.12 138.43C117.65 137.82 121.12 136.72 123.88 134.35C126.76 131.81 127.99 127.97 128.56 124.29C129.56 117.69 130.39 111.06 131.14 104.43C138.56 105.68 146.95 104.26 152.5 98.8401C153.69 97.7301 154.81 95.7901 153.64 94.2801C152.47 92.7701 150.39 93.2801 148.8 93.5801C144.98 94.2601 140.8 95.0501 137.14 93.4701C143.848 83.0914 148.811 71.6836 151.83 59.7001C153 55.1535 153.578 50.4748 153.55 45.7801C153.43 43.1501 153.07 40.3601 151.46 38.1801C147.43 32.9221 141.778 29.1401 135.38 27.4201C127.46 25.3001 119 25.9401 111.15 28.3501L111.17 28.3701Z" fill="#010101"/>
<path d="M29.6901 167.29C29.6901 171.74 26.3501 174.5 21.0301 174.5H17.0001V180H12.3901V160.06H21.0001C26.3501 160.06 29.6901 162.82 29.6901 167.29ZM25.0101 167.29C25.0101 165.1 23.5901 163.82 20.7701 163.82H17.0001V170.74H20.7601C23.5901 170.74 25.0001 169.46 25.0001 167.29H25.0101Z" fill="#346791"/>
<path d="M31.48 172.34C31.48 167.72 35.04 164.45 39.91 164.45C44.78 164.45 48.31 167.72 48.31 172.34C48.31 176.96 44.78 180.23 39.91 180.23C35.04 180.23 31.48 177 31.48 172.34ZM43.81 172.34C43.81 169.69 42.13 168.09 39.91 168.09C37.69 168.09 36 169.69 36 172.34C35.9493 172.883 36.0137 173.431 36.189 173.948C36.3644 174.464 36.6467 174.938 37.0176 175.338C37.3884 175.738 37.8395 176.056 38.3413 176.27C38.8432 176.484 39.3845 176.59 39.93 176.58C42.13 176.58 43.81 175 43.81 172.34Z" fill="#346791"/>
<path d="M49.79 178.58L51.27 175.38C52.8803 176.347 54.7217 176.862 56.6 176.87C58.6 176.87 59.42 176.33 59.42 175.47C59.42 172.96 50.16 175.53 50.16 169.4C50.16 166.5 52.78 164.4 57.25 164.4C59.2953 164.36 61.3197 164.816 63.15 165.73L61.67 169C60.3235 168.235 58.7983 167.842 57.25 167.86C55.25 167.86 54.41 168.48 54.41 169.28C54.41 171.9 63.67 169.37 63.67 175.41C63.67 178.26 61.02 180.28 56.43 180.28C54.1056 180.308 51.8149 179.722 49.79 178.58Z" fill="#346791"/>
<path d="M76.2798 179.26C75.2006 179.948 73.9394 180.297 72.6598 180.26C69.0498 180.26 66.9398 178.41 66.9398 174.76V168.46H64.5698V165H66.9398V161.26H71.3798V165H75.1998V168.41H71.3798V174.65C71.3481 174.912 71.3749 175.179 71.4583 175.43C71.5417 175.68 71.6797 175.91 71.8624 176.101C72.045 176.292 72.2677 176.441 72.5145 176.535C72.7614 176.63 73.0261 176.669 73.2898 176.65C73.9355 176.658 74.5668 176.459 75.0898 176.08L76.2798 179.26Z" fill="#346791"/>
<path d="M94.1102 164.67V177.44C94.1102 183.13 91.0402 185.75 85.5102 185.75C82.8447 185.862 80.2124 185.127 77.9902 183.65L79.7502 180.46C81.3293 181.594 83.2263 182.2 85.1702 182.19C88.3002 182.19 89.6702 180.77 89.6702 178.01V177.35C89.0452 177.994 88.2903 178.497 87.4558 178.827C86.6213 179.156 85.7263 179.304 84.8302 179.26C80.5802 179.26 77.1602 176.33 77.1602 171.85C77.1602 167.37 80.5802 164.45 84.8302 164.45C85.7874 164.396 86.7442 164.565 87.6243 164.945C88.5045 165.326 89.2838 165.906 89.9002 166.64V164.64L94.1102 164.67ZM89.7302 171.85C89.7782 171.051 89.5851 170.255 89.1758 169.567C88.7665 168.878 88.1599 168.328 87.4345 167.988C86.7091 167.648 85.8984 167.534 85.1074 167.66C84.3163 167.787 83.5814 168.147 82.9977 168.696C82.4141 169.245 82.0086 169.956 81.8338 170.738C81.659 171.519 81.7229 172.336 82.0173 173.081C82.3117 173.826 82.823 174.465 83.485 174.916C84.1469 175.367 84.9291 175.609 85.7302 175.61C86.2447 175.648 86.7615 175.578 87.2477 175.406C87.734 175.233 88.1791 174.961 88.5551 174.608C88.931 174.255 89.2295 173.827 89.4318 173.352C89.6341 172.878 89.7357 172.366 89.7302 171.85Z" fill="#346791"/>
<path d="M107.75 164.45V168.55C107.38 168.55 107.1 168.49 106.75 168.49C104.3 168.49 102.67 169.83 102.67 172.76V180H98.2402V164.67H102.48V166.67C103.115 165.902 103.925 165.3 104.843 164.913C105.761 164.527 106.758 164.368 107.75 164.45Z" fill="#346791"/>
<path d="M125.19 173.59H113.59C114.02 175.5 115.59 176.67 117.98 176.67C118.689 176.696 119.395 176.578 120.057 176.324C120.718 176.069 121.322 175.684 121.83 175.19L124.19 177.75C123.383 178.601 122.398 179.265 121.306 179.693C120.214 180.122 119.041 180.305 117.87 180.23C112.57 180.23 109.12 176.89 109.12 172.34C109.12 167.79 112.62 164.45 117.3 164.45C118.361 164.389 119.423 164.553 120.417 164.93C121.411 165.307 122.314 165.889 123.069 166.637C123.823 167.386 124.412 168.285 124.796 169.276C125.181 170.267 125.352 171.328 125.3 172.39C125.27 172.74 125.22 173.22 125.19 173.59ZM113.54 171H121.08C120.934 170.105 120.475 169.292 119.784 168.705C119.093 168.118 118.216 167.796 117.31 167.796C116.404 167.796 115.527 168.118 114.836 168.705C114.146 169.292 113.686 170.105 113.54 171Z" fill="#346791"/>
<path d="M127 178L128.56 174.53C130.496 175.865 132.788 176.589 135.14 176.61C137.88 176.61 138.99 175.7 138.99 174.47C138.99 170.74 127.4 173.3 127.4 165.9C127.4 162.51 130.13 159.69 135.8 159.69C138.224 159.636 140.616 160.245 142.72 161.45L141.28 165C139.605 164.004 137.699 163.463 135.75 163.43C133.02 163.43 131.96 164.43 131.96 165.71C131.96 169.38 143.56 166.85 143.56 174.17C143.56 177.5 140.79 180.35 135.1 180.35C132.224 180.407 129.399 179.588 127 178Z" fill="#346791"/>
<path d="M168.28 182.14C167.627 182.929 166.803 183.559 165.872 183.984C164.94 184.408 163.924 184.615 162.9 184.59C159.9 184.59 157.85 183.5 154.78 180.26C152.219 180.041 149.835 178.862 148.107 176.959C146.378 175.056 145.433 172.571 145.46 170C145.46 164.07 150.08 159.69 156.37 159.69C162.66 159.69 167.28 164.05 167.28 170C167.316 172.178 166.639 174.307 165.354 176.065C164.069 177.823 162.245 179.114 160.16 179.74C160.497 180.168 160.925 180.516 161.412 180.758C161.9 181 162.436 181.131 162.98 181.14C163.596 181.138 164.204 181.004 164.764 180.749C165.324 180.494 165.824 180.123 166.23 179.66L168.28 182.14ZM156.37 176.41C157.637 176.438 158.884 176.088 159.952 175.404C161.019 174.72 161.859 173.734 162.363 172.571C162.868 171.407 163.014 170.12 162.784 168.874C162.554 167.627 161.958 166.477 161.071 165.571C160.185 164.665 159.048 164.043 157.807 163.785C156.566 163.527 155.276 163.645 154.102 164.124C152.928 164.602 151.923 165.42 151.216 166.472C150.508 167.524 150.13 168.763 150.13 170.03C150.088 170.867 150.22 171.704 150.517 172.488C150.814 173.271 151.27 173.985 151.856 174.584C152.442 175.183 153.145 175.655 153.922 175.969C154.699 176.283 155.532 176.434 156.37 176.41Z" fill="#346791"/>
<path d="M170.75 160.06H175.37V176.24H185.37V180H170.75V160.06Z" fill="#346791"/>
</svg>
