<svg width="200" height="200" viewBox="0 0 200 200" fill="none" xmlns="http://www.w3.org/2000/svg">
<path d="M149.43 56.0699C147.79 55.5099 146.14 54.9999 144.49 54.5199C144.77 53.3999 145.02 52.2799 145.25 51.1499C148.99 33.0099 146.55 18.3899 138.25 13.5799C130.25 8.95987 117.15 13.7699 103.94 25.2799C102.64 26.4099 101.36 27.5799 100.12 28.7799C99.2898 27.9799 98.4398 27.1999 97.5798 26.4299C83.6798 14.1299 69.7898 8.99987 61.4498 13.7799C53.4498 18.4099 51.0898 32.1399 54.4498 49.3399C54.7898 51.0499 55.1698 52.7399 55.5898 54.4299C53.5898 54.9799 51.7198 55.5799 49.9098 56.2099C33.6698 61.8699 23.2998 70.7399 23.2998 79.9999C23.2998 89.5099 34.4298 98.9999 51.3498 104.82C52.7198 105.29 54.1098 105.72 55.4998 106.12C55.0465 107.94 54.6465 109.767 54.2998 111.6C51.0898 128.5 53.5998 141.91 61.5698 146.51C69.8098 151.26 83.6298 146.38 97.0898 134.62C98.1498 133.69 99.2198 132.7 100.29 131.67C101.623 132.97 103.003 134.23 104.43 135.45C117.43 146.67 130.34 151.2 138.31 146.59C146.54 141.83 149.21 127.42 145.74 109.88C145.48 108.53 145.16 107.17 144.82 105.77C145.82 105.49 146.75 105.19 147.67 104.89C165.26 99.0599 176.67 89.6399 176.67 79.9999C176.7 70.7099 166 61.7699 149.43 56.0699ZM108.19 30.2199C119.52 20.3599 130.11 16.4699 134.92 19.2199C140.06 22.2199 142.06 34.1299 138.83 49.7899C138.62 50.7899 138.39 51.7899 138.14 52.8399C131.381 51.3124 124.53 50.2301 117.63 49.5999C113.664 43.9214 109.321 38.5159 104.63 33.4199C105.803 32.3399 106.99 31.2732 108.19 30.2199ZM68.5898 87.8099C69.9831 90.4765 71.4365 93.1232 72.9498 95.7499C74.4631 98.3765 76.0665 101.003 77.7598 103.63C72.7598 103.06 67.9998 102.3 63.6198 101.35C64.9998 96.9999 66.6498 92.4299 68.5898 87.8099ZM68.5898 72.3999C66.6798 67.8699 65.0498 63.3999 63.7098 59.1299C68.0898 58.1299 72.7598 57.3499 77.6198 56.7399C75.9865 59.2799 74.4198 61.8565 72.9198 64.4699C71.4198 67.0832 69.9765 69.7265 68.5898 72.3999ZM72.0698 80.1099C74.0698 75.9032 76.2465 71.7799 78.5998 67.7399C80.9331 63.6999 83.3998 59.7532 85.9998 55.8999C90.5598 55.5499 95.2398 55.3699 99.9998 55.3699C104.76 55.3699 109.44 55.5499 114 55.8999C116.6 59.7399 119.063 63.6732 121.39 67.6999C123.716 71.7265 125.92 75.8265 128 79.9999C125.953 84.2199 123.756 88.3599 121.41 92.4199C119.09 96.4599 116.636 100.417 114.05 104.29C109.49 104.62 104.79 104.79 100.05 104.79C95.3098 104.79 90.6298 104.64 86.1598 104.35C83.4931 100.483 80.9931 96.5165 78.6598 92.4499C76.3265 88.3832 74.1298 84.2699 72.0698 80.1099ZM127.07 95.6999C128.623 93.0332 130.106 90.3232 131.52 87.5699C133.471 91.977 135.19 96.4831 136.67 101.07C131.948 102.127 127.175 102.941 122.37 103.51C123.996 100.93 125.566 98.3265 127.08 95.6999H127.07ZM131.46 72.3999C130.04 69.7332 128.566 67.0665 127.04 64.3999C125.54 61.8065 123.986 59.2499 122.38 56.7299C127.27 57.3499 131.97 58.1699 136.38 59.1799C134.967 63.6664 133.328 68.0786 131.47 72.3999H131.46ZM100.06 38.1399C103.244 41.6167 106.248 45.2548 109.06 49.0399C103.02 48.7532 96.9998 48.7399 90.9998 48.9999C93.9998 45.0999 96.9998 41.4499 100.07 38.1399H100.06ZM64.7398 19.4399C69.8698 16.4399 81.2198 20.7099 93.1798 31.3299C93.9398 32.0099 94.7098 32.7199 95.4798 33.4599C90.7686 38.5534 86.4022 43.9553 82.4098 49.6299C75.5249 50.2466 68.6873 51.3088 61.9398 52.8099C61.5498 51.2499 61.1998 49.6699 60.8798 48.0899C57.9998 33.3499 59.9198 22.2399 64.7398 19.4399ZM57.2598 99.7499C55.9798 99.3899 54.7198 98.9999 53.4698 98.5599C45.9998 95.9999 39.8098 92.6799 35.5698 89.0599C31.7698 85.7999 29.8398 82.5699 29.8398 79.9399C29.8398 74.3599 38.1698 67.2299 52.0598 62.3899C53.8131 61.7832 55.5731 61.2265 57.3398 60.7199C59.3979 67.3382 61.8934 73.8124 64.8098 80.0999C61.8701 86.4794 59.3481 93.0432 57.2598 99.7499ZM92.7698 129.63C86.7698 134.83 80.8598 138.52 75.5998 140.37C70.8798 142.04 67.1198 142.09 64.8498 140.78C59.9998 138 57.9998 127.21 60.7398 112.76C61.0665 111.047 61.4398 109.347 61.8598 107.66C68.6727 109.133 75.5791 110.136 82.5298 110.66C86.554 116.366 90.9537 121.798 95.6998 126.92C94.7398 127.85 93.7698 128.76 92.7698 129.63ZM100.25 122.22C97.1498 118.87 94.0498 115.22 91.0198 111.22C93.9598 111.327 96.9598 111.383 100.02 111.39C103.08 111.397 106.166 111.327 109.28 111.18C106.461 115.012 103.447 118.697 100.25 122.22ZM140.05 131.34C139.14 136.26 137.29 139.55 135.05 140.86C130.22 143.66 119.87 140.02 108.73 130.43C107.45 129.33 106.16 128.15 104.87 126.91C109.516 121.76 113.812 116.304 117.73 110.58C124.719 109.994 131.659 108.921 138.5 107.37C138.82 108.64 139.09 109.88 139.33 111.08C140.85 118.84 141.06 125.86 140.05 131.34ZM145.61 98.6099C144.77 98.8799 143.91 99.1599 143.03 99.4099C140.885 92.7705 138.289 86.2854 135.26 79.9999C138.174 73.7902 140.67 67.3926 142.73 60.8499C144.303 61.3032 145.823 61.7832 147.29 62.2899C161.49 67.1699 170.14 74.3999 170.14 79.9699C170.15 85.8799 160.79 93.5799 145.61 98.6099Z" fill="#54C1DE"/>
<path d="M99.9301 93.65C102.642 93.65 105.293 92.8452 107.547 91.3376C109.801 89.83 111.556 87.6874 112.592 85.1812C113.627 82.6749 113.896 79.9177 113.363 77.2588C112.83 74.5999 111.521 72.1589 109.6 70.2449C107.679 68.331 105.233 67.0301 102.572 66.5072C99.9112 65.9842 97.155 66.2627 94.6526 67.3073C92.1501 68.3519 90.0139 70.1156 88.5146 72.3751C87.0152 74.6346 86.2202 77.2883 86.2301 80C86.2407 83.6256 87.689 87.099 90.2574 89.658C92.8258 92.217 96.3044 93.6527 99.9301 93.65Z" fill="#54C1DE"/>
<path d="M66.0002 187.9L60.7502 180.38C60.4171 180.401 60.0832 180.401 59.7502 180.38H53.9302V187.86H49.1602V162.23H59.7202C66.4602 162.23 70.6402 165.68 70.6402 171.36C70.7192 173.118 70.2311 174.854 69.2479 176.312C68.2648 177.771 66.8386 178.875 65.1802 179.46L71.0802 187.89H66.0002V187.9ZM59.5402 166.27H53.9102V176.5H59.4902C63.6702 176.5 65.8302 174.59 65.8302 171.37C65.8302 168.15 63.6702 166.27 59.4902 166.27H59.5402Z" fill="#54C1DE"/>
<path d="M93.8402 179.58H78.4802C79.0302 182.43 81.4102 184.27 84.8202 184.27C85.8071 184.31 86.7913 184.142 87.7082 183.774C88.6251 183.407 89.4539 182.85 90.1402 182.14L92.5902 185C90.8302 187.1 88.0802 188.2 84.7102 188.2C78.1502 188.2 73.8902 183.98 73.8902 178.2C73.8396 176.859 74.0666 175.522 74.5569 174.274C75.0472 173.025 75.7903 171.89 76.7395 170.942C77.6887 169.994 78.8236 169.252 80.0731 168.763C81.3225 168.274 82.6595 168.048 84.0002 168.1C89.7302 168.1 93.9002 172.1 93.9002 178.22C93.9102 178.59 93.8802 179.14 93.8402 179.58ZM78.4502 176.53H89.5502C89.4088 175.177 88.7551 173.929 87.7232 173.042C86.6913 172.155 85.3594 171.697 84.0002 171.76C82.6458 171.716 81.324 172.181 80.2963 173.064C79.2686 173.948 78.6098 175.184 78.4502 176.53Z" fill="#54C1DE"/>
<path d="M114.15 176.43V187.91H109.83V185.52C108.73 187.21 106.6 188.16 103.67 188.16C99.2001 188.16 96.3701 185.71 96.3701 182.29C96.3701 179.03 98.5701 176.46 104.52 176.46H109.58V176.17C109.58 173.49 107.96 171.92 104.7 171.92C102.563 171.893 100.478 172.575 98.7701 173.86L97.0001 170.53C99.4309 168.852 102.338 168.003 105.29 168.11C110.89 168.1 114.15 170.78 114.15 176.43ZM109.57 181.77V179.5H104.84C101.73 179.5 100.84 180.68 100.84 182.1C100.84 183.75 102.23 184.81 104.58 184.81C105.626 184.89 106.67 184.64 107.565 184.094C108.461 183.549 109.162 182.736 109.57 181.77Z" fill="#54C1DE"/>
<path d="M118.59 178.11C118.59 172.24 122.99 168.11 129.18 168.11C132.99 168.11 136.04 169.69 137.54 172.66L134.02 174.66C133.52 173.817 132.807 173.122 131.951 172.644C131.096 172.166 130.129 171.924 129.15 171.94C127.568 172.004 126.073 172.678 124.976 173.819C123.88 174.961 123.267 176.482 123.267 178.065C123.267 179.648 123.88 181.17 124.976 182.311C126.073 183.453 127.568 184.126 129.15 184.19C130.129 184.21 131.096 183.97 131.951 183.494C132.807 183.018 133.521 182.323 134.02 181.48L137.54 183.48C136.04 186.42 132.99 188.07 129.18 188.07C123 188.16 118.59 184 118.59 178.11Z" fill="#54C1DE"/>
<path d="M153.53 186.83C152.25 187.745 150.703 188.212 149.13 188.16C144.84 188.16 142.38 185.88 142.38 181.56V172.14H139.16V168.47H142.38V164H147V168.47H152.25V172.13H147V181.44C147 183.34 148 184.37 149.72 184.37C150.639 184.399 151.541 184.117 152.28 183.57L153.53 186.83Z" fill="#54C1DE"/>
</svg>
