<svg width="200" height="200" viewBox="0 0 200 200" fill="none" xmlns="http://www.w3.org/2000/svg">
<path d="M130.73 96.3298L66.8701 134.25L149.56 128.64L155.93 45.2598L130.73 96.3298Z" fill="url(#paint0_linear)"/>
<path d="M149.7 128.58L142.59 79.5303L123.23 105.09L149.7 128.58Z" fill="url(#paint1_linear)"/>
<path d="M149.79 128.58L97.7199 124.5L67.1499 134.15L149.79 128.58Z" fill="url(#paint2_linear)"/>
<path d="M67.2201 134.16L80.2201 91.54L51.6001 97.66L67.2201 134.16Z" fill="url(#paint3_linear)"/>
<path d="M123.22 105.23L111.22 58.3496L77 90.4596L123.22 105.23Z" fill="url(#paint4_linear)"/>
<path d="M153.21 59.0003L120.84 32.5703L111.84 61.7203L153.21 59.0003Z" fill="url(#paint5_linear)"/>
<path d="M138.07 23.14L119 33.66L107 23L138.07 23.14Z" fill="url(#paint6_linear)"/>
<path d="M44.0698 112L52.0698 97.4501L45.5998 80.0801L44.0698 112Z" fill="url(#paint7_linear)"/>
<path d="M45.1699 79.5298L51.6599 97.9998L79.8699 91.6698L112.08 61.7298L121.17 32.8598L106.86 22.7598L82.5199 31.8598C74.8599 38.9398 59.9999 53.0498 59.4399 53.3198C58.8799 53.5898 49.6199 71.1498 45.1699 79.5298Z" fill="white"/>
<path d="M67.9999 46.4502C84.5799 30.0002 106 20.2402 114.22 28.5302C122.44 36.8202 113.72 57.0002 97.1099 73.4502C80.4999 89.9002 59.3399 100.19 51.1099 91.8902C42.8799 83.5902 51.3399 62.8902 67.9499 46.4502H67.9999Z" fill="url(#paint8_linear)"/>
<path d="M67.2202 134.14L80.1202 91.3896L123 105.16C107.5 119.69 90.2602 131.98 67.2302 134.16L67.2202 134.14Z" fill="url(#paint9_linear)"/>
<path d="M112.14 61.5998L123.14 105.18C136.08 91.5698 147.7 76.9398 153.39 58.8398L112.14 61.5998Z" fill="url(#paint10_linear)"/>
<path d="M153.28 59.0602C157.68 45.7702 158.7 26.7002 137.94 23.1602L120.94 32.5702L153.32 59.0602H153.28Z" fill="url(#paint11_linear)"/>
<path d="M44.0698 111.77C44.6798 133.7 60.5098 134.03 67.2498 134.22L51.6798 97.8604L44.0698 111.77Z" fill="#9E1D20"/>
<path d="M112.2 61.6704C122.14 67.7804 142.2 80.0604 142.6 80.2904C143.23 80.6404 151.24 66.7804 153.06 58.9404L112.2 61.6704Z" fill="url(#paint12_radial)"/>
<path d="M80.1099 91.3896L97.3599 124.68C107.56 119.14 115.55 112.4 122.87 105.18L80.1099 91.3896Z" fill="url(#paint13_radial)"/>
<path d="M51.6102 97.9005L49.1602 127C53.7802 133.3 60.1602 133.85 66.7802 133.36C61.9602 121.36 52.3402 97.3605 51.6102 97.8905V97.9005Z" fill="url(#paint14_linear)"/>
<path d="M120.8 32.6497L155.07 37.4596C153.24 29.7096 147.62 24.6996 138.07 23.1396L120.8 32.6497Z" fill="url(#paint15_linear)"/>
<path d="M69 180L64.16 173H58.84V180H53V154.9H63.9C70.6 154.9 74.8 158.38 74.8 164.01C74.8675 165.704 74.406 167.377 73.4795 168.796C72.553 170.215 71.2076 171.311 69.63 171.93L75.26 180H69ZM63.55 159.63H58.84V168.38H63.57C67.12 168.38 68.92 166.73 68.92 164.01C68.92 161.29 67.12 159.63 63.57 159.63H63.55Z" fill="#D81F26"/>
<path d="M98.4201 160.71V180H93.1201V177.71C92.3642 178.546 91.437 179.209 90.4016 179.654C89.3661 180.1 88.2469 180.316 87.1201 180.29C82.2801 180.29 78.8701 177.56 78.8701 171.61V160.71H84.4601V170.78C84.4601 174.01 85.9001 175.45 88.3701 175.45C90.8401 175.45 92.8201 173.8 92.8201 170.25V160.71H98.4201Z" fill="#D81F26"/>
<path d="M124.63 170.35C124.63 176.41 120.44 180.29 115.02 180.29C113.886 180.356 112.752 180.165 111.702 179.73C110.652 179.295 109.715 178.629 108.96 177.78V180H103.62V153.39H109.21V162.75C109.954 161.966 110.858 161.352 111.86 160.95C112.863 160.547 113.941 160.367 115.02 160.42C120.44 160.42 124.63 164.29 124.63 170.35ZM118.97 170.35C118.97 167.02 116.85 165.01 114.05 165.01C111.25 165.01 109.14 167.01 109.14 170.35C109.14 173.69 111.26 175.7 114.05 175.7C116.84 175.7 119 173.69 119 170.35H118.97Z" fill="#D81F26"/>
<path d="M147 160.71L138.28 181.18C136.42 185.84 133.77 187.24 130.28 187.24C128.34 187.282 126.443 186.665 124.9 185.49L126.9 181.49C127.779 182.252 128.897 182.683 130.06 182.71C131.6 182.71 132.46 182.02 133.21 180.3L133.29 180.12L125 160.71H130.77L136.19 173.8L141.64 160.71H147Z" fill="#D81F26"/>
<defs>
<linearGradient id="paint0_linear" x1="142.571" y1="145.161" x2="120.275" y2="102.564" gradientUnits="userSpaceOnUse">
<stop stop-color="#F37657"/>
<stop offset="0.41" stop-color="#E32F26"/>
<stop offset="0.99" stop-color="#991B1E"/>
<stop offset="1" stop-color="#991B1E"/>
</linearGradient>
<linearGradient id="paint1_linear" x1="153.732" y1="109.318" x2="120.353" y2="102.962" gradientUnits="userSpaceOnUse">
<stop stop-color="#861719"/>
<stop offset="0.99" stop-color="#911A1D"/>
<stop offset="1" stop-color="#911A1D"/>
</linearGradient>
<linearGradient id="paint2_linear" x1="-3.45232e+06" y1="9328.72" x2="-3.45232e+06" y2="9126.83" gradientUnits="userSpaceOnUse">
<stop stop-color="#861719"/>
<stop offset="0.99" stop-color="#911A1D"/>
<stop offset="1" stop-color="#911A1D"/>
</linearGradient>
<linearGradient id="paint3_linear" x1="66.5207" y1="95.089" x2="76.0762" y2="123.512" gradientUnits="userSpaceOnUse">
<stop stop-color="white"/>
<stop offset="0.23" stop-color="#E67352"/>
<stop offset="0.46" stop-color="#DE3E26"/>
<stop offset="0.99" stop-color="#A51E22"/>
<stop offset="1" stop-color="#A51E22"/>
</linearGradient>
<linearGradient id="paint4_linear" x1="98.7416" y1="65.7788" x2="99.8252" y2="97.8268" gradientUnits="userSpaceOnUse">
<stop stop-color="white"/>
<stop offset="0.23" stop-color="#E3714E"/>
<stop offset="0.56" stop-color="#BC2026"/>
<stop offset="0.99" stop-color="#A71E22"/>
<stop offset="1" stop-color="#A71E22"/>
</linearGradient>
<linearGradient id="paint5_linear" x1="127.608" y1="37.2255" x2="129.972" y2="60.0519" gradientUnits="userSpaceOnUse">
<stop stop-color="white"/>
<stop offset="0.18" stop-color="#E46342"/>
<stop offset="0.4" stop-color="#C72A27"/>
<stop offset="0.99" stop-color="#A71E22"/>
<stop offset="1" stop-color="#A71E22"/>
</linearGradient>
<linearGradient id="paint6_linear" x1="110.278" y1="29.211" x2="114.026" y2="13.5189" gradientUnits="userSpaceOnUse">
<stop stop-color="white"/>
<stop offset="0.54" stop-color="#C82527"/>
<stop offset="0.99" stop-color="#BE2026"/>
<stop offset="1" stop-color="#BE2026"/>
</linearGradient>
<linearGradient id="paint7_linear" x1="45.6252" y1="86.8425" x2="54.9406" y2="92.1412" gradientUnits="userSpaceOnUse">
<stop stop-color="white"/>
<stop offset="0.31" stop-color="#DD4326"/>
<stop offset="0.99" stop-color="#BE2026"/>
<stop offset="1" stop-color="#BE2026"/>
</linearGradient>
<linearGradient id="paint8_linear" x1="33.8443" y1="110.074" x2="120.709" y2="21.5067" gradientUnits="userSpaceOnUse">
<stop stop-color="#BD2025"/>
<stop offset="0.07" stop-color="white"/>
<stop offset="0.17" stop-color="white"/>
<stop offset="0.27" stop-color="#C83227"/>
<stop offset="0.33" stop-color="#811517"/>
<stop offset="0.46" stop-color="#A21D21"/>
<stop offset="0.72" stop-color="#B21F24"/>
<stop offset="0.99" stop-color="#E62B25"/>
<stop offset="1" stop-color="#E62B25"/>
</linearGradient>
<linearGradient id="paint9_linear" x1="101.071" y1="119.778" x2="76.1364" y2="108.936" gradientUnits="userSpaceOnUse">
<stop stop-color="#8B181B"/>
<stop offset="0.54" stop-color="#991B1E"/>
<stop offset="0.99" stop-color="#A71E22"/>
<stop offset="1" stop-color="#A71E22"/>
</linearGradient>
<linearGradient id="paint10_linear" x1="145.523" y1="87.9818" x2="119.95" y2="69.7689" gradientUnits="userSpaceOnUse">
<stop stop-color="#7E1416"/>
<stop offset="0.99" stop-color="#9E1C20"/>
<stop offset="1" stop-color="#9E1C20"/>
</linearGradient>
<linearGradient id="paint11_linear" x1="154.096" y1="49.4111" x2="141.832" y2="37.4601" gradientUnits="userSpaceOnUse">
<stop stop-color="#791715"/>
<stop offset="0.99" stop-color="#9E1D20"/>
<stop offset="1" stop-color="#9E1D20"/>
</linearGradient>
<radialGradient id="paint12_radial" cx="0" cy="0" r="1" gradientUnits="userSpaceOnUse" gradientTransform="translate(126.029 67.3859) scale(28.602 14.945)">
<stop stop-color="#A71E22"/>
<stop offset="0.99" stop-color="#7E1416"/>
<stop offset="1" stop-color="#7E1416"/>
</radialGradient>
<radialGradient id="paint13_radial" cx="0" cy="0" r="1" gradientUnits="userSpaceOnUse" gradientTransform="translate(86.0379 105.279) scale(37.6288 29.2952)">
<stop stop-color="#A11D21"/>
<stop offset="0.99" stop-color="#801517"/>
<stop offset="1" stop-color="#801517"/>
</radialGradient>
<linearGradient id="paint14_linear" x1="58.4078" y1="133.616" x2="37.4076" y2="116" gradientUnits="userSpaceOnUse">
<stop stop-color="#8C231C"/>
<stop offset="0.43" stop-color="#9E1C20"/>
<stop offset="0.99" stop-color="#B31F24"/>
<stop offset="1" stop-color="#B31F24"/>
</linearGradient>
<linearGradient id="paint15_linear" x1="131.205" y1="27.9326" x2="137.17" y2="43.2728" gradientUnits="userSpaceOnUse">
<stop stop-color="#B21F24"/>
<stop offset="0.44" stop-color="#911A1D"/>
<stop offset="0.99" stop-color="#791F15"/>
<stop offset="1" stop-color="#791F15"/>
</linearGradient>
</defs>
</svg>
